<svg width="16" height="16" viewBox="0 0 16 16" fill="none" xmlns="http://www.w3.org/2000/svg">
<mask id="mask0_1476_195" style="mask-type:alpha" maskUnits="userSpaceOnUse" x="0" y="0" width="16" height="16">
<rect width="16" height="16" fill="#D9D9D9"/>
</mask>
<g mask="url(#mask0_1476_195)">
<path d="M5.33317 11.9999H10.6665V10.6666H5.33317V11.9999ZM5.33317 9.33325H10.6665V7.99992H5.33317V9.33325ZM3.99984 14.6666C3.63317 14.6666 3.31939 14.5361 3.0585 14.2753C2.79717 14.0139 2.6665 13.6999 2.6665 13.3333V2.66659C2.6665 2.29992 2.79717 1.98592 3.0585 1.72459C3.31939 1.4637 3.63317 1.33325 3.99984 1.33325H9.33317L13.3332 5.33325V13.3333C13.3332 13.6999 13.2027 14.0139 12.9418 14.2753C12.6805 14.5361 12.3665 14.6666 11.9998 14.6666H3.99984ZM8.6665 5.99992V2.66659H3.99984V13.3333H11.9998V5.99992H8.6665Z" fill="#5978CF"/>
</g>
</svg>
