<svg width="16" height="16" viewBox="0 0 16 16" fill="none" xmlns="http://www.w3.org/2000/svg">
<mask id="mask0_1476_173" style="mask-type:alpha" maskUnits="userSpaceOnUse" x="0" y="0" width="16" height="16">
<rect width="16" height="16" fill="#D9D9D9"/>
</mask>
<g mask="url(#mask0_1476_173)">
<path d="M9.33333 13.8166V12.4499C10.3333 12.161 11.1389 11.6055 11.75 10.7832C12.3611 9.96101 12.6667 9.02768 12.6667 7.98324C12.6667 6.93879 12.3611 6.00546 11.75 5.18324C11.1389 4.36101 10.3333 3.80546 9.33333 3.51657V2.1499C10.7111 2.46101 11.8333 3.15812 12.7 4.24124C13.5667 5.32479 14 6.57212 14 7.98324C14 9.39435 13.5667 10.6415 12.7 11.7246C11.8333 12.8081 10.7111 13.5055 9.33333 13.8166ZM2 9.9999V5.9999H4.66667L8 2.66657V13.3332L4.66667 9.9999H2ZM9.33333 10.6666V5.2999C9.85556 5.54435 10.264 5.91101 10.5587 6.3999C10.8529 6.88879 11 7.42212 11 7.9999C11 8.56657 10.8529 9.09146 10.5587 9.57457C10.264 10.0581 9.85556 10.4221 9.33333 10.6666Z" fill="#3FA96A"/>
</g>
</svg>
